# xmcd
#
# Track frame offsets: 
#        150
#        18612
#        35070
#        53582
#        72242
#        94330
#
# Disc length: 1557 seconds
#
# Revision: 0
# Processed by: cddbd v1.5.2PL0 Copyright (c) Steve Scherf et al.
# Submitted via: ExactAudioCopy v1.3
#
DISCID=4e061306
DTITLE=Z'Looke - My Desire (Promo CDM)
DYEAR=1991
DGENRE=Funk
TTITLE0=My Desire (Remix)
TTITLE1=My Desire (7'' Version)
TTITLE2=My Desire (Dub Mix)
TTITLE3=My Desire (Straight Pass)
TTITLE4=My Desire (Extended Mix)
TTITLE5=My Desire (Dance Version)
EXTD=
EXTT0=
EXTT1=
EXTT2=
EXTT3=
EXTT4=
EXTT5=
PLAYORDER=
